<?xml version="1.0" encoding="utf-8"?>
<!-- Generator: Adobe Illustrator 28.3.0, SVG Export Plug-In . SVG Version: 6.00 Build 0)  -->
<svg version="1.1" id="Livello_1" xmlns="http://www.w3.org/2000/svg" xmlns:xlink="http://www.w3.org/1999/xlink" x="0px" y="0px"
	 viewBox="0 0 97.4 97.4" style="enable-background:new 0 0 97.4 97.4;" xml:space="preserve">
<style type="text/css">
	.st0{fill:#1B2533;}
	.st1{fill:#DFEAF8;}
	.st2{fill:#FF6827;}
	.st3{fill:#FFD0C0;}
	.st4{fill:none;stroke:#1B2533;stroke-width:8;stroke-linecap:round;stroke-linejoin:round;stroke-miterlimit:10;}
	.st5{fill:none;stroke:#FFFFFF;stroke-width:8;stroke-linecap:round;stroke-linejoin:round;stroke-miterlimit:10;}
	.st6{fill:none;stroke:#1B2533;stroke-width:5.6086;stroke-linecap:round;stroke-linejoin:round;stroke-miterlimit:10;}
	.st7{fill:#1B2533;stroke:#1B2533;stroke-width:5.6086;stroke-linecap:round;stroke-linejoin:round;stroke-miterlimit:10;}
</style>
<rect x="-148" y="-296.7" class="st0" width="42.5" height="42.5"/>
<rect x="-105.5" y="-296.7" class="st1" width="42.5" height="42.5"/>
<rect x="-58.4" y="-296.7" class="st2" width="42.5" height="42.5"/>
<rect x="-15.9" y="-296.7" class="st3" width="42.5" height="42.5"/>
<g>
	<path class="st2" d="M63.8-291.4v31.9H31.9v-31.9H63.8 M69.1-296.7H26.6v42.5h42.5V-296.7L69.1-296.7z"/>
</g>
<g>
	<path class="st4" d="M-186.2,39.7v47.6c0,3.1-2.6,5.7-5.7,5.7h-75.8c-3.1,0-5.7-2.6-5.7-5.7V39.7c0-1.8,0.8-3.4,2.2-4.5l37.9-29.7
		c2.1-1.6,5-1.6,7,0l37.9,29.7C-187,36.3-186.2,37.9-186.2,39.7z"/>
	<line class="st4" x1="-256.1" y1="74.8" x2="-203.5" y2="74.8"/>
</g>
<g>
	<path class="st4" d="M-54.4-140.3v47.6c0,3.1-2.6,5.7-5.7,5.7h-75.8c-3.1,0-5.7-2.6-5.7-5.7v-47.6c0-1.8,0.8-3.4,2.2-4.5l37.9-29.7
		c2.1-1.6,5-1.6,7,0l37.9,29.7C-55.2-143.7-54.4-142.1-54.4-140.3z"/>
	<line class="st4" x1="-124.3" y1="-105.2" x2="-71.7" y2="-105.2"/>
</g>
<path class="st0" d="M212-134v31.8c0,2.1-1.7,3.8-3.8,3.8h-50.7c-2.1,0-3.8-1.7-3.8-3.8V-134c0-1.2,0.5-2.3,1.5-3l25.3-19.8
	c1.4-1.1,3.3-1.1,4.7,0l25.3,19.8C211.5-136.2,212-135.1,212-134z"/>
<path class="st4" d="M75.5-137.8v39.3c0,6.9-5.6,12.6-12.5,12.6H10c-6.9,0-12.6-5.6-12.6-12.6v-53C-2.6-158.4,3-164,10-164h39.4"/>
<path class="st4" d="M33.8-142.2l20.4-0.9c0,0-10.7,16.6-26.8,22.3s-29.9,3.4-29.9,3.4"/>
<line class="st4" x1="54.2" y1="-123.7" x2="54.2" y2="-143.1"/>
<g>
	<line class="st4" x1="235.3" y1="26.8" x2="255.7" y2="26.8"/>
	<polyline class="st4" points="255.7,46.2 255.7,26.8 212,70.5 	"/>
</g>
<line class="st4" x1="75.5" y1="-164" x2="75.5" y2="-151.2"/>
<line class="st4" x1="75.5" y1="-176.8" x2="75.5" y2="-164"/>
<line class="st4" x1="75.5" y1="-164" x2="62.7" y2="-164"/>
<line class="st4" x1="88.3" y1="-164" x2="75.5" y2="-164"/>
<path class="st4" d="M221.9-312.2v39.3c0,6.9-5.6,12.6-12.5,12.6h-53c-6.9,0-12.6-5.6-12.6-12.6v-53c0-6.9,5.6-12.5,12.6-12.5h39.4"
	/>
<path class="st4" d="M180.2-316.5l20.4-0.9c0,0-10.7,16.6-26.8,22.3s-29.9,3.4-29.9,3.4"/>
<line class="st4" x1="200.6" y1="-298" x2="200.6" y2="-317.4"/>
<line class="st4" x1="221.9" y1="-338.3" x2="221.9" y2="-325.5"/>
<line class="st4" x1="221.9" y1="-351.1" x2="221.9" y2="-338.3"/>
<line class="st4" x1="221.9" y1="-338.3" x2="209.1" y2="-338.3"/>
<line class="st4" x1="234.7" y1="-338.3" x2="221.9" y2="-338.3"/>
<line class="st5" x1="182.9" y1="-125" x2="182.9" y2="-112.2"/>
<line class="st5" x1="182.9" y1="-137.8" x2="182.9" y2="-125"/>
<line class="st5" x1="182.9" y1="-125" x2="170.1" y2="-125"/>
<line class="st5" x1="195.6" y1="-125" x2="182.9" y2="-125"/>
<path class="st4" d="M226.5-140.3v47.6c0,3.1-2.6,5.7-5.7,5.7H145c-3.1,0-5.7-2.6-5.7-5.7v-47.6c0-1.8,0.8-3.4,2.2-4.5l37.9-29.7
	c2.1-1.6,5-1.6,7,0l37.9,29.7C225.6-143.7,226.5-142.1,226.5-140.3z"/>
<text transform="matrix(1 0 0 1 -121.8886 -194.4142)" class="st0" style="font-family:'GendyRegular'; font-size:18.5399px;">HOME</text>
<text transform="matrix(1 0 0 1 -7.1113 -194.4142)" class="st0" style="font-family:'GendyRegular'; font-size:18.5399px;">DASHBOARD</text>
<text transform="matrix(1 0 0 1 165.9998 -194.4142)" class="st0" style="font-family:'GendyRegular'; font-size:18.5399px;">ADD</text>
<g>
	<polyline class="st6" points="308.3,-145.2 308.3,-171.8 364.7,-171.8 364.7,-99.1 308.3,-99.1 308.3,-126 	"/>
	<polygon class="st7" points="364.7,-171.8 329.2,-156.7 329.2,-88 364.7,-99.1 	"/>
	<g>
		<polyline class="st6" points="316.7,-135.5 286.3,-135.5 294.8,-142.7 		"/>
		<line class="st6" x1="286.3" y1="-135.5" x2="294.8" y2="-128.2"/>
	</g>
</g>
<g>
	<g>
		<path class="st0" d="M480.9-133.4c-0.4,0-0.9-0.1-1.3-0.2L434.7-149c-1.6-0.6-2.7-2.1-2.7-3.8s1.1-3.2,2.7-3.8l44.9-15.4
			c0.8-0.3,1.8-0.3,2.6,0l44.9,15.4c1.6,0.6,2.7,2.1,2.7,3.8s-1.1,3.2-2.7,3.8l-44.9,15.4C481.7-133.5,481.3-133.4,480.9-133.4z
			 M448.3-152.8l32.6,11.2l32.6-11.2L480.9-164L448.3-152.8z"/>
	</g>
	<g>
		<path class="st0" d="M480.9-112c-0.4,0-0.9-0.1-1.3-0.2l-44.9-15.4c-2.1-0.7-3.2-3-2.5-5.1s3-3.2,5.1-2.5l43.6,14.9l43.6-14.9
			c2.1-0.7,4.4,0.4,5.1,2.5s-0.4,4.4-2.5,5.1l-44.9,15.4C481.7-112,481.3-112,480.9-112z"/>
	</g>
	<g>
		<path class="st0" d="M480.9-90.6c-0.4,0-0.9-0.1-1.3-0.2l-44.9-15.4c-2.1-0.7-3.2-3-2.5-5.1s3-3.2,5.1-2.5l43.6,14.9l43.6-14.9
			c2.1-0.7,4.4,0.4,5.1,2.5c0.7,2.1-0.4,4.4-2.5,5.1l-44.9,15.4C481.7-90.6,481.3-90.6,480.9-90.6z"/>
	</g>
</g>
<g>
	<polygon class="st4" points="525.7,-296.9 480.9,-281.5 436,-296.9 480.9,-312.3 	"/>
	<polyline class="st4" points="525.7,-275.5 480.9,-260.1 436,-275.5 	"/>
	<polyline class="st4" points="525.7,-254.1 480.9,-238.7 436,-254.1 	"/>
</g>
<g>
	<path class="st0" d="M540.6,88.2l-12-11.9c5.3-6.6,8.6-15,8.6-24.1c0-21.1-17.2-38.3-38.3-38.3c-21.1,0-38.3,17.2-38.3,38.3
		s17.2,38.3,38.3,38.3c9.1,0,17.5-3.2,24.1-8.6l11.9,11.9c0.8,0.8,1.8,1.2,2.8,1.2s2-0.4,2.8-1.2C542.2,92.3,542.2,89.8,540.6,88.2z
		 M468.5,52.2c0-16.7,13.6-30.3,30.3-30.3c16.7,0,30.3,13.6,30.3,30.3s-13.6,30.3-30.3,30.3C482.1,82.5,468.5,68.9,468.5,52.2z"/>
	<path class="st0" d="M498.9,28c-13.3,0-24.1,10.8-24.1,24.1c0,2.2,1.8,4,4,4c2.2,0,4-1.8,4-4c0-8.9,7.2-16.1,16.1-16.1
		c2.2,0,4-1.8,4-4S501.1,28,498.9,28z"/>
</g>
<g>
	<path class="st0" d="M-58.6,82.4l-11.9-11.9c5.3-6.6,8.6-15,8.6-24.1c0-21.1-17.2-38.3-38.3-38.3s-38.3,17.2-38.3,38.3
		s17.2,38.3,38.3,38.3c9.1,0,17.5-3.2,24.1-8.6L-64.2,88c0.8,0.8,1.8,1.2,2.8,1.2s2-0.4,2.8-1.2C-57,86.5-57,84-58.6,82.4z
		 M-130.6,46.4c0-16.7,13.6-30.3,30.3-30.3S-70,29.7-70,46.4s-13.6,30.3-30.3,30.3S-130.6,63.1-130.6,46.4z"/>
	<path class="st0" d="M-100.3,22.2c-13.3,0-24.1,10.8-24.1,24.1c0,2.2,1.8,4,4,4s4-1.8,4-4c0-8.9,7.2-16.1,16.1-16.1
		c2.2,0,4-1.8,4-4S-98.1,22.2-100.3,22.2z"/>
</g>
<circle class="st4" cx="-100.3" cy="202.4" r="34.3"/>
<line class="st4" x1="-76" y1="226.7" x2="-61.4" y2="241.3"/>
<path class="st4" d="M-100.3,182.3c-11.1,0-20.1,9-20.1,20.1"/>
<image style="overflow:visible;" width="612" height="612" xlink:href="B4695441.jpg"  transform="matrix(0.223 0 0 0.223 145.7667 70.5333)">
</image>
<rect x="18.7" y="30.2" class="st5" width="25.3" height="27.2"/>
<rect x="7" y="32.8" class="st5" width="11.8" height="22"/>
<path class="st5" d="M89.7,7.1v73.3c0,0-20.6-19.1-49.4-23H44V30.2h-3.7C69.1,26.2,89.7,7.1,89.7,7.1z"/>
<path class="st5" d="M24.6,57.4l5.5,28.4c0,0,0.9,5.6,7.1,4.5c6-1,4.8-6.5,4.8-6.5l-5.5-26.5H24.6z"/>
</svg>
